# xmcd
#
# Track frame offsets: 
#        150
#        13855
#        27846
#        39986
#        52854
#        68624
#        88890
#        104162
#        120668
#        137724
#        153915
#        170884
#        185538
#        199930
#        215065
#
# Disc length: 3046 seconds
#
# Revision: 0
# Processed by: cddbd v1.5.2PL0 Copyright (c) Steve Scherf et al.
# Submitted via: ExactAudioCopyFreeDBPlugin 1.0
#
DISCID=d80be40f
DTITLE=David Starr - Love and Sabotage
DYEAR=2016
DGENRE=Folk
TTITLE0=Love and Sabotage
TTITLE1=Hard to Find a Witness (with Dana Cooper)
TTITLE2=Life After You
TTITLE3=Secrets (with John Oates)
TTITLE4=Called It Love (with Steve Cropper)
TTITLE5=Tumbleweed
TTITLE6=Our Mistakes
TTITLE7=Long Ride Home
TTITLE8=You Will Come To Know
TTITLE9=Fever
TTITLE10=Heed the Call (with Richie Furay)
TTITLE11=What Do You Recall
TTITLE12=No Time Like The Present
TTITLE13=Afraid
TTITLE14=The Beautiful Music of You (with Richie Furay)
EXTD=
EXTT0=
EXTT1=
EXTT2=
EXTT3=
EXTT4=
EXTT5=
EXTT6=
EXTT7=
EXTT8=
EXTT9=
EXTT10=
EXTT11=
EXTT12=
EXTT13=
EXTT14=
PLAYORDER=
